<?xml version="1.0" encoding="UTF-8" standalone="no"?>
<!DOCTYPE svg PUBLIC "-//W3C//DTD SVG 1.1//EN"
 "http://www.w3.org/Graphics/SVG/1.1/DTD/svg11.dtd">
<!-- Generated by graphviz version 2.36.0 (20140111.2315)
 -->
<!-- Title: notebook Pages: 1 -->
<svg width="256pt" height="116pt"
 viewBox="0.00 0.00 256.00 116.00" xmlns="http://www.w3.org/2000/svg" xmlns:xlink="http://www.w3.org/1999/xlink">
<g id="graph0" class="graph" transform="scale(1 1) rotate(0) translate(4 112)">
<title>notebook</title>
<polygon fill="white" stroke="none" points="-4,4 -4,-112 252,-112 252,4 -4,4"/>
<!-- exp1 -->
<g id="node1" class="node"><title>exp1</title>
<g id="a_node1"><a xlink:href="http://example.com/1" xlink:title="experiment 1">
<ellipse fill="none" stroke="black" cx="57" cy="-90" rx="57.2688" ry="18"/>
<text text-anchor="middle" x="57" y="-86.3" font-family="Times,serif" font-size="14.00">experiment 1</text>
</a>
</g>
</g>
<!-- exp3 -->
<g id="node3" class="node"><title>exp3</title>
<g id="a_node3"><a xlink:href="http://example.com/3" xlink:title="experiment 3">
<ellipse fill="none" stroke="black" cx="124" cy="-18" rx="57.2688" ry="18"/>
<text text-anchor="middle" x="124" y="-14.3" font-family="Times,serif" font-size="14.00">experiment 3</text>
</a>
</g>
</g>
<!-- exp1&#45;&gt;exp3 -->
<g id="edge1" class="edge"><title>exp1&#45;&gt;exp3</title>
<path fill="none" stroke="black" d="M72.8781,-72.411C81.3055,-63.6062 91.813,-52.6282 101.106,-42.9189"/>
<polygon fill="black" stroke="black" points="103.85,-45.1143 108.236,-35.4699 98.7928,-40.274 103.85,-45.1143"/>
</g>
<!-- exp2 -->
<g id="node2" class="node"><title>exp2</title>
<g id="a_node2"><a xlink:href="http://example.com/2" xlink:title="experiment 2">
<ellipse fill="none" stroke="black" cx="191" cy="-90" rx="57.2688" ry="18"/>
<text text-anchor="middle" x="191" y="-86.3" font-family="Times,serif" font-size="14.00">experiment 2</text>
</a>
</g>
</g>
<!-- exp2&#45;&gt;exp3 -->
<g id="edge2" class="edge"><title>exp2&#45;&gt;exp3</title>
<path fill="none" stroke="black" d="M175.122,-72.411C166.694,-63.6062 156.187,-52.6282 146.894,-42.9189"/>
<polygon fill="black" stroke="black" points="149.207,-40.274 139.764,-35.4699 144.15,-45.1143 149.207,-40.274"/>
</g>
</g>
</svg>
